<svg id="Outline" height="512" viewBox="0 0 512 512" width="512" xmlns="http://www.w3.org/2000/svg"><path d="m484.309 37.392a8 8 0 0 0 -9.7-9.7 237.743 237.743 0 0 0 -85.431 40.664l-50.657 37.993-47.763-5.307a7.988 7.988 0 0 0 -4.769.958l-48.789 27.1-32.6-2.717 7.041-7.041a63.084 63.084 0 0 0 18.349-44.292 8 8 0 0 0 -8-8 63.083 63.083 0 0 0 -44.29 18.35l-35.76 35.76-38.076-3.173a8 8 0 0 0 -6.321 2.316l-33.943 33.943a8 8 0 0 0 -2.343 5.656v33.942a8 8 0 0 0 1.753 5l34.29 42.864-44.133-4.9a7.994 7.994 0 0 0 -6.541 2.295l-28.283 28.28a8 8 0 0 0 -1.7 8.808l16.971 39.6a8 8 0 0 0 7.354 4.849h42.441l-9.7 16.168a8 8 0 0 0 1.2 9.773l22.628 22.627a7.833 7.833 0 0 0 7.212 2.173 103.946 103.946 0 0 0 -8.344 28.374l-1.131 7.92a8 8 0 0 0 9.052 9.051l7.918-1.132a103.913 103.913 0 0 0 28.361-8.336 8 8 0 0 0 2.187 7.205l22.627 22.627a8 8 0 0 0 9.773 1.2l16.168-9.7v42.438a8 8 0 0 0 4.849 7.353l39.6 16.971a8 8 0 0 0 8.808-1.7l28.283-28.279a8 8 0 0 0 2.294-6.54l-4.9-44.135 42.867 34.294a8 8 0 0 0 5 1.753h33.939a8 8 0 0 0 5.657-2.343l33.943-33.941a8 8 0 0 0 2.316-6.321l-3.173-38.077 35.757-35.763a63.078 63.078 0 0 0 18.35-44.29 8 8 0 0 0 -8-8 63.077 63.077 0 0 0 -44.293 18.352l-7.04 7.041-2.717-32.603 27.1-48.787a7.989 7.989 0 0 0 .958-4.768l-5.307-47.763 37.993-50.657a237.741 237.741 0 0 0 40.665-85.433zm-88.557 94.764-5.788 34.726-23.444 18.756-40.158-40.157 18.757-23.446 34.725-5.787a13.823 13.823 0 0 1 15.908 15.908zm-86.738 54.216a26.167 26.167 0 0 1 4.408-24.716l2.883-3.6 37.643 37.644-3.6 2.883a26.269 26.269 0 0 1 -41.331-12.206zm-95.889-102.457a47 47 0 0 1 -12.8 24.114l-.961.962-11.315-11.314.961-.961a47.007 47.007 0 0 1 24.115-12.801zm-36.39 25.076 11.314 11.314-4.339 4.338-20.887-1.74zm-70.506 25.251 132.071 11.005a7.983 7.983 0 0 0 4.549-.979l48.679-27.044 33.936 3.77-15.675 19.6h-25.574a8 8 0 0 0 -4.438 1.344l-31.7 21.13-160.63-10.044zm-72.743 140.625 21.737-21.736 81.458 9.051-42.456 42.456h-47.979zm143.249 15.143-45.254 45.255-22.628-22.627 45.254-45.255zm-86.093 49.672 8.485-14.142 19.451 19.451-14.141 8.485zm153.975 18.211-45.255 45.254-22.627-22.627 45.255-45.255zm-72.3 63.465-13.794-13.794 8.485-14.142 19.451 19.451zm64.816 57.155-29.772-12.759v-47.979l42.456-42.456 9.051 81.459zm30.659-86.3-3.911-35.2a7.963 7.963 0 0 0 -2.29-4.774l-11.314-11.314 11.314-11.314-11.315-11.314-11.312 11.314-11.314-11.314a8 8 0 0 0 -11.314 0l-56.569 56.569a88.6 88.6 0 0 1 -47.086 24.459 88.6 88.6 0 0 1 24.463-47.09l56.568-56.568a8 8 0 0 0 0-11.313l-11.32-11.314 11.314-11.314-11.314-11.314-11.314 11.314-11.313-11.314a8 8 0 0 0 -4.774-2.29l-35.2-3.911-42.536-53.173v-22.62l172.52 10.782c.167.01.333.015.5.015a8 8 0 0 0 4.438-1.343l31.925-21.284h10.9a42.061 42.061 0 0 0 1.412 45.146l-37.362 37.366 11.312 11.312 37.363-37.363a42.074 42.074 0 0 0 45.146 1.419v10.894l-21.283 31.926a7.993 7.993 0 0 0 -1.328 4.937l10.782 172.52h-22.617zm119.565-63.923 4.339-4.338 11.313 11.313-13.909 13.911zm40.728-29.415a47 47 0 0 1 -12.8 24.115l-.961.961-11.314-11.313.962-.962a47 47 0 0 1 24.113-12.801zm-60.354-29.721a8 8 0 0 0 -.979 4.55l11.007 132.067-18.783 18.782-10.039-160.634 21.13-31.7a8 8 0 0 0 1.344-4.437v-25.568l19.594-15.675 3.77 33.935zm42.907-128.986.9-5.381a29.824 29.824 0 0 0 -34.322-34.321l-5.383.9 26.945-20.209a221.665 221.665 0 0 1 66.177-34.107 221.656 221.656 0 0 1 -34.106 66.178z"/><path d="m242.274 253.726h16v16h-16z" transform="matrix(.707 -.707 .707 .707 -111.765 253.644)"/></svg>