<svg height="471pt" viewBox="0 -103 471.9732 471" width="471pt" xmlns="http://www.w3.org/2000/svg"><path d="m200 212.488281c-6.628906 0-12 5.371094-12 12 0 6.625 5.371094 12 12 12s12-5.375 12-12c0-6.628906-5.371094-12-12-12zm0 16c-2.210938 0-4-1.792969-4-4 0-2.210937 1.789062-4 4-4s4 1.789063 4 4c0 2.207031-1.789062 4-4 4zm0 0"/><path d="m112 212.488281c-6.628906 0-12 5.371094-12 12 0 6.625 5.371094 12 12 12s12-5.375 12-12c0-6.628906-5.371094-12-12-12zm0 16c-2.210938 0-4-1.792969-4-4 0-2.210937 1.789062-4 4-4s4 1.789063 4 4c0 2.207031-1.789062 4-4 4zm0 0"/><path d="m296 212.488281c-6.628906 0-12 5.371094-12 12 0 6.625 5.371094 12 12 12s12-5.375 12-12c0-6.628906-5.371094-12-12-12zm0 16c-2.210938 0-4-1.792969-4-4 0-2.210937 1.789062-4 4-4s4 1.789063 4 4c0 2.207031-1.789062 4-4 4zm0 0"/><path d="m384 212.488281c-6.628906 0-12 5.371094-12 12 0 6.625 5.371094 12 12 12s12-5.375 12-12c0-6.628906-5.371094-12-12-12zm0 16c-2.210938 0-4-1.792969-4-4 0-2.210937 1.789062-4 4-4s4 1.789063 4 4c0 2.207031-1.789062 4-4 4zm0 0"/><path d="m8 88.488281h32c4.417969 0 8-3.582031 8-8h96v16h-24c-3.445312-.003906-6.503906 2.203125-7.59375 5.46875l-14.175781 42.53125h-58.230469c-4.417969 0-8 3.578125-8 8v12.445313c-12 6.875-18.179688 20.71875-15.277344 34.242187 2.902344 13.523438 14.214844 23.613281 27.980469 24.957031l37.28125 31.066407c7.1875 5.988281 16.242187 9.277343 25.601563 9.289062h272.476562c.800781 0 1.601562-.105469 2.402344-.152343.511718 0 .992187.152343 1.511718.152343 6.632813-.046875 13.148438-1.765625 18.945313-4.992187l38.796875-11.203125c12.722656-.628907 23.84375-8.785157 28.269531-20.730469s1.308594-25.378906-7.933593-34.148438l-14.488282-43.472656c-1.089844-3.253906-4.132812-5.449218-7.566406-5.453125h-26.230469l-14.175781-42.53125c-1.089844-3.265625-4.148438-5.472656-7.59375-5.46875h-56v-56c0-4.421875-3.582031-8-8-8h-16.800781c-3.828125-18.613281-20.199219-31.976562-39.199219-32h-64c-19 .023438-35.371094 13.386719-39.199219 32h-120.800781c0-4.421875-3.582031-8-8-8h-32c-4.417969 0-8 3.578125-8 8v48c0 4.417969 3.582031 8 8 8zm40 120c-8.835938.023438-16.019531-7.121093-16.042969-15.957031-.023437-8.835938 7.117188-16.019531 15.953125-16.042969h.449219c8.835937.097657 15.921875 7.339844 15.820313 16.179688-.097657 8.835937-7.34375 15.917969-16.179688 15.820312zm24.175781 17.734375-7.71875-6.398437c4.226563-2.542969 7.8125-6.023438 10.480469-10.175781-1.921875 4.710937-2.917969 9.75-2.9375 14.839843 0 .589844.152344 1.140625.175781 1.734375zm39.824219 22.265625c-13.253906 0-24-10.746093-24-24 0-13.257812 10.746094-24 24-24s24 10.742188 24 24c0 13.253907-10.746094 24-24 24zm56.207031 0h-24.414062c5.292969-6.886719 8.175781-15.316406 8.207031-24 .058594-18.035156-11.996094-33.863281-29.398438-38.601562-17.398437-4.738281-35.8125 2.792969-44.90625 18.367187 3.445313-8.421875 3.011719-17.933594-1.191406-26.007812l115.40625 7.066406c-18.566406 3.855469-31.886718 20.207031-31.910156 39.175781.03125 8.683594 2.914062 17.113281 8.207031 24zm31.792969 0c-13.253906 0-24-10.746093-24-24 0-13.257812 10.746094-24 24-24s24 10.742188 24 24c0 13.253907-10.746094 24-24 24zm64.207031 0h-32.414062c7.910156-10.28125 10.277343-23.785156 6.339843-36.140625-3.941406-12.359375-13.6875-22-26.085937-25.804687l63.273437 3.878906c-9.714843 5.773437-16.492187 15.433594-18.617187 26.535156-2.121094 11.097657.609375 22.578125 7.503906 31.53125zm31.792969 0c-13.253906 0-24-10.746093-24-24 0-13.257812 10.746094-24 24-24s24 10.742188 24 24c0 13.253907-10.746094 24-24 24zm56.207031 0h-24.414062c6.390625-8.285156 9.222656-18.769531 7.871093-29.144531-1.351562-10.371094-6.773437-19.78125-15.070312-26.152344l36.101562 2.207032c-15.027343 13.859374-16.976562 36.902343-4.488281 53.089843zm44.960938-4-11.296875 3.261719c-1.316406.277344-2.65625.441406-4 .496094-11.582032-1.121094-20.664063-10.429688-21.503906-22.035156-.835938-11.605469 6.816406-22.121094 18.117187-24.894532 11.300781-2.773437 22.953125 3.011719 27.582031 13.683594 4.628906 10.675781.882813 23.132812-8.867187 29.488281zm58.832031-28c0 8.835938-7.164062 16-16 16s-16-7.164062-16-16c0-8.839843 7.164062-16 16-16s16 7.160157 16 16zm-48-56h26.230469l8.082031 24.230469c-.617188-.039062-1.199219-.175781-1.824219-.183594l-392-24c-.167969 0-.320312-.046875-.488281-.046875zm-200-144h64c10.167969.011719 19.230469 6.417969 22.632812 16h-109.265624c3.402343-9.582031 12.464843-15.988281 22.632812-16zm-48 56v-24h160v16h-24v16h24v16h-160zm168 40h58.230469l10.671875 32h-281.804688l10.671875-32zm-280-64h96v16h-96zm-32-8h16v32h-16zm0 0"/><path d="m232 64.488281h16v16h-16zm0 0"/><path d="m264 64.488281h16v16h-16zm0 0"/><path d="m200 64.488281h16v16h-16zm0 0"/></svg>